<svg width="64" height="64" viewBox="0 0 64 64" fill="none" xmlns="http://www.w3.org/2000/svg" role="img" aria-labelledby="title desc">
  <title id="title">Interactive QR Reader favicon</title>
  <desc id="desc">A blue QR-inspired icon.</desc>
  <defs>
    <linearGradient id="bg" x1="8" y1="6" x2="56" y2="58" gradientUnits="userSpaceOnUse">
      <stop stop-color="#0F172A"/>
      <stop offset="0.55" stop-color="#2563EB"/>
      <stop offset="1" stop-color="#38BDF8"/>
    </linearGradient>
  </defs>
  <rect width="64" height="64" rx="16" fill="url(#bg)"/>
  <rect x="10" y="10" width="18" height="18" rx="4" fill="#F8FBFF"/>
  <rect x="36" y="10" width="18" height="18" rx="4" fill="#F8FBFF"/>
  <rect x="10" y="36" width="18" height="18" rx="4" fill="#F8FBFF"/>
  <rect x="14" y="14" width="10" height="10" rx="2.5" fill="#0F172A"/>
  <rect x="40" y="14" width="10" height="10" rx="2.5" fill="#0F172A"/>
  <rect x="14" y="40" width="10" height="10" rx="2.5" fill="#0F172A"/>
  <g fill="#DBF4FF">
    <rect x="31" y="31" width="5" height="5" rx="1.5"/>
    <rect x="42" y="31" width="5" height="5" rx="1.5"/>
    <rect x="31" y="42" width="5" height="5" rx="1.5"/>
    <rect x="20" y="31" width="5" height="5" rx="1.5"/>
    <rect x="31" y="20" width="5" height="5" rx="1.5"/>
    <rect x="20" y="42" width="5" height="5" rx="1.5"/>
    <rect x="42" y="42" width="5" height="5" rx="1.5"/>
  </g>
</svg>
