<svg width="64" height="64" viewBox="0 0 64 64" fill="none" xmlns="http://www.w3.org/2000/svg" role="img" aria-labelledby="title desc">
  <title id="title">Interactive QR Reader favicon</title>
  <desc id="desc">A QR-inspired favicon using the site's dark panel styling with coral, cyan, green, and amber modules from the exploded QR view.</desc>

  <rect width="64" height="64" rx="18" fill="#17171C" />
  <rect x="7" y="7" width="50" height="50" rx="14" fill="#F7F1E6" />
  <rect x="7.5" y="7.5" width="49" height="49" rx="13.5" stroke="#D9D9DD" />

  <rect x="12" y="12" width="16" height="16" rx="4" fill="#FF5A71" />
  <rect x="16" y="16" width="8" height="8" rx="2" fill="#F9D8DC" />
  <rect x="18" y="18" width="4" height="4" rx="1.2" fill="#FF5A71" />

  <rect x="36" y="12" width="16" height="16" rx="4" fill="#FF5A71" />
  <rect x="40" y="16" width="8" height="8" rx="2" fill="#F9D8DC" />
  <rect x="42" y="18" width="4" height="4" rx="1.2" fill="#FF5A71" />

  <rect x="12" y="36" width="16" height="16" rx="4" fill="#FF5A71" />
  <rect x="16" y="40" width="8" height="8" rx="2" fill="#F9D8DC" />
  <rect x="18" y="42" width="4" height="4" rx="1.2" fill="#FF5A71" />

  <rect x="30" y="12" width="4" height="40" rx="2" fill="#4CBEE0" />
  <rect x="12" y="30" width="40" height="4" rx="2" fill="#4CBEE0" />

  <rect x="30" y="30" width="4" height="4" rx="1.2" fill="#17171C" />
  <rect x="36" y="30" width="8" height="8" rx="2.2" fill="#18B46B" />
  <rect x="30" y="36" width="8" height="8" rx="2.2" fill="#18B46B" />

  <rect x="38" y="38" width="14" height="14" rx="4" fill="#FFB70A" />
  <rect x="42" y="42" width="6" height="6" rx="2" fill="#FFF3CE" />
  <rect x="44" y="44" width="2" height="2" rx="1" fill="#FFB70A" />
</svg>
